<?xml version="1.0" encoding="UTF-8" standalone="no"?>
<svg xmlns="http://www.w3.org/2000/svg" xmlns:xlink="http://www.w3.org/1999/xlink" version="1.1" viewBox="0 0 256 256">
	<defs>
		<linearGradient id="border" x1="50%" y1="0%" x2="50%" y2="100%">
			<stop offset="0%" stop-color="#00ff00" />
			<stop offset="100%" stop-color="#006000" />
		</linearGradient>
		<linearGradient id="inside" x1="50%" y1="0%" x2="50%" y2="100%">
			<stop offset="0%" stop-color="#008000" />
			<stop offset="100%" stop-color="#00d800" />
		</linearGradient>
		<g id="key" transform="translate(40, 36) scale(0.1, 0.1)">
			<!-- Fork-Awesome-1.1.7/src/icons/svg/key-modern.svg -->
			<path d="M545.791.004c-138.987.532-278.297 54.075-384.975 160.28-212.915 213.861-214.66 557.72-3.754 769.28 141.623 141.165 342.865 186.371 524.418 136.66l185.99 185.989 242.167-139.018 45.35 45.348-134.63 225.324 45.35 45.348 225.322-134.627 45.35 45.348-134.629 225.324 45.35 45.347 225.324-134.627 45.348 45.348-134.627 225.324 45.347 45.348H1728c35.456 0 64-28.544 64-64v-319.264l-725.96-725.96c50.134-181.75 4.897-383.514-137.198-524.989C823.446 51.95 684.778-.528 545.79.004zM405.324 245.717c41.032 0 82.063 15.652 113.37 46.959 62.612 62.613 62.612 164.127 0 226.74-62.613 62.613-164.128 62.613-226.74 0-62.614-62.613-62.614-164.127 0-226.74 31.306-31.307 72.338-46.96 113.37-46.96z" />
		</g>
		<filter id="blur">
			<feGaussianBlur in="SourceGraphic" stdDeviation="4" />
		</filter>
	</defs>
	<rect x="0" y="0" width="256" height="256" rx="32" fill="url(#border)" />
	<rect x="16" y="16" width="224" height="224" rx="24" fill="url(#inside)" />
	<use xlink:href="#key" fill="black" opacity="0.5" filter="url(#blur)" x="-16" y="16" />
	<use xlink:href="#key" fill="white" />
</svg>